<?xml version="1.0" encoding="utf-8"?>
<!-- Generator: Adobe Illustrator 16.0.0, SVG Export Plug-In . SVG Version: 6.00 Build 0)  -->
<!DOCTYPE svg PUBLIC "-//W3C//DTD SVG 1.1//EN" "http://www.w3.org/Graphics/SVG/1.1/DTD/svg11.dtd">
<svg version="1.1" id="Layer_1" xmlns="http://www.w3.org/2000/svg" xmlns:xlink="http://www.w3.org/1999/xlink" x="0px" y="0px"
	 width="2100px" height="2100px" viewBox="0 0 2100 2100" enable-background="new 0 0 2100 2100" xml:space="preserve">
<g>
	<defs>
		<rect id="SVGID_1_" width="2100" height="2100"/>
	</defs>
	<clipPath id="SVGID_2_">
		<use xlink:href="#SVGID_1_"  overflow="visible"/>
	</clipPath>
	<path clip-path="url(#SVGID_2_)" fill-rule="evenodd" clip-rule="evenodd" fill="#003329" d="M1193.059,78.448
		C628.637,3.129,107.12,378.927,28.001,918.136c-78.841,539.21,314.525,1037.436,878.944,1113.022
		c-210.891-289.567-266.051-579.397-15.6-875.886c-59.341,3.995-116.729,20.492-172.724,49.238
		c56.831-101.137,128.429-191.094,224.542-262.952c-338.486-27.68-83.299-287.437,150.717-252.837
		c-175.791,97.674-244.043,170.065,7.801,112.046c13.65-43.383,43.459-81.176,79.117-117.106
		c113.945-49.235,223.707-104.328,342.105-148.243c-17.273,21.558-34.264,43.382-51.814,64.94
		c-18.947,23.155-0.838,21.027,10.586,21.292c37.051,1.065,73.824-3.194,110.318-11.178c3.063,42.317-1.672,83.57-9.75,124.556
		l-26.465-66.801c-68.256,118.434-160.748,204.665-259.92,281.849c91.375,7.982,169.377-8.518,237.076-43.118
		c9.473,35.665,5.293,69.731-12.258,101.935c-306.725-42.851-604.259,315.383-515.946,747.068
		c22.286-66.002,50.702-127.215,91.655-178.583c89.705,182.843,243.488,290.897,441.842,345.991
		c279.701-143.72,486.414-408.534,533.775-731.901C2150.846,652.259,1757.199,154.033,1193.059,78.448 M540.046,1024.065
		c-65.467-26.616-122.022-64.408-170.216-113.114c92.768,24.219,186.373,26.614,280.814,9.315
		C610.808,953.269,573.757,987.868,540.046,1024.065 M1940.787,1173.901c-9.746,66.007-27.021,129.083-50.701,188.701
		c-93.885,132.804-351.857,194.286-508.426,136.531c-276.918-102.201-98.064-494.767,171.891-402.678
		c44.572-63.877,66.305-135.204,45.408-220.901c67.422-126.686,96.67-258.427,49.033-400.283
		c-10.311-30.873-23.4-46.575-67.416-35.398c-147.377,37.793-283.33,114.443-425.408,170.601
		c-10.586,4.258-20.893,5.057-32.035,2.927c-351.3-66.535-582.251,243.79-898.168,177.254
		c45.965,124.822,135.114,220.102,270.23,284.51c-102.522,124.29-173.283,266.945-213.399,426.896
		c-104.472-163.681-152.666-361.691-122.579-566.356C228.028,465.69,682.684,138.063,1174.67,203.803
		C1666.656,269.542,2009.6,703.892,1940.787,1173.901"/>
</g>
</svg>
