<?xml version="1.0" encoding="iso-8859-1"?>
<!-- Generator: Adobe Illustrator 25.0.0, SVG Export Plug-In . SVG Version: 6.00 Build 0)  -->
<svg version="1.1" id="Layer_1" xmlns="http://www.w3.org/2000/svg" xmlns:xlink="http://www.w3.org/1999/xlink" x="0px" y="0px"
	 width="2000px" height="2000px" viewBox="0 0 200 200" enable-background="new 0 0 200 200" xml:space="preserve">
<g>
	<path fill-rule="evenodd" clip-rule="evenodd" d="M96.863,68.984c0.379-0.657,0.668-1.036,0.837-1.463
		c5.428-13.812,14.298-25.238,24.691-35.603c7.439-7.418,16.223-12.645,26.166-15.965c5.991-2.001,12.167-2.985,18.465-3.039
		c15.567-0.135,28.718,10.726,32.008,26.147c1.884,8.833,0.82,17.45-1.478,26.002c-2.266,8.432-5.881,16.297-10.342,23.778
		c-7.873,13.203-16.967,25.509-27.278,36.911c-20.246,22.386-41.091,44.183-63.632,64.297c-1.868,1.668-3.788,3.285-5.77,4.811
		c-0.978,0.753-2.104,1.374-3.251,1.834c-2.613,1.05-3.818,0.479-4.981-2.141c-0.351-0.792-0.622-1.64-1.091-2.356
		c-4.323-6.598-7.929-13.648-13.023-19.768c-3.816-4.587-7.123-9.591-10.774-14.321c-8.065-10.452-16.209-20.843-24.31-31.267
		c-10.033-12.908-18.661-26.686-25.378-41.605C2.599,73.853-0.37,61.948,0.037,49.377c0.252-7.767,1.874-15.292,4.738-22.521
		c3.47-8.751,9.891-14.898,17.963-19.273c12.593-6.823,25.045-6.246,37.343,1.172c9.02,5.442,15.542,13.157,20.912,21.973
		c6.857,11.258,12.083,23.228,15.181,36.081C96.329,67.447,96.569,68.065,96.863,68.984z M86.391,188.903
		c1.789-1.691,3.291-3.181,4.868-4.59c18.494-16.524,35.788-34.254,52.707-52.365c11.066-11.845,21.808-23.939,30.854-37.453
		c5.374-8.029,10.457-16.207,13.807-25.316c3.333-9.063,5.272-18.331,3.453-28.049c-2.504-13.38-13.843-22.3-27.363-21.537
		c-11.385,0.643-21.653,4.427-30.868,11.056c-8.472,6.094-15.15,13.945-21.298,22.273c-5.835,7.903-10.103,16.604-13.012,25.983
		c-0.541,1.748-1.067,3.516-1.822,5.173c-0.299,0.656-1.222,1.454-1.826,1.425c-0.619-0.028-1.377-0.889-1.742-1.565
		c-0.395-0.727-0.445-1.658-0.58-2.51c-2.615-16.495-8.447-31.797-17.189-45.99c-5.266-8.547-11.654-15.921-20.526-21.116
		C37.229,3.417,17.399,15.922,11.88,28.836c-3.651,8.545-5.257,17.552-4.528,26.832c0.715,9.091,2.979,17.84,6.675,26.206
		c6.226,14.087,14.205,27.131,23.491,39.384c12.981,17.127,26.041,34.193,39.022,51.32c1.448,1.911,2.632,4.029,3.867,6.093
		C82.377,181.97,84.288,185.302,86.391,188.903z"/>
</g>
</svg>
