<?xml version="1.0" standalone="no"?>
<!DOCTYPE svg PUBLIC "-//W3C//DTD SVG 20010904//EN"
 "http://www.w3.org/TR/2001/REC-SVG-20010904/DTD/svg10.dtd">
<svg version="1.0" xmlns="http://www.w3.org/2000/svg"
 width="993.000000pt" height="892.000000pt" viewBox="0 0 993.000000 892.000000"
 preserveAspectRatio="xMidYMid meet">

<g transform="translate(0.000000,892.000000) scale(0.100000,-0.100000)"
fill="#ff3355" stroke="none">
<path d="M4170 8164 c-202 -33 -296 -95 -413 -268 -66 -100 -137 -191 -307
-396 -198 -239 -304 -416 -351 -586 -38 -139 -14 -380 39 -378 38 1 195 108
276 189 59 58 93 102 125 162 75 141 185 252 339 342 210 122 402 155 562 96
93 -34 270 -124 333 -168 l48 -34 97 97 c167 166 282 202 425 132 66 -33 153
-109 213 -185 l29 -37 265 116 c146 64 269 119 274 124 14 14 -41 187 -94 296
-85 175 -179 256 -297 255 -94 0 -177 -37 -348 -156 -274 -190 -318 -182 -425
77 -37 91 -94 160 -160 193 -140 71 -516 148 -630 129z"/>
<path d="M6380 7556 c0 -2 44 -36 98 -77 126 -96 319 -283 394 -383 67 -90
121 -198 137 -274 6 -29 11 -104 11 -166 0 -171 -32 -330 -101 -507 l-29 -76
30 -64 c49 -106 70 -207 70 -338 0 -155 -25 -259 -105 -444 -5 -13 13 -8 81
24 125 57 293 113 421 141 91 19 136 23 288 22 154 0 192 -4 260 -22 88 -25
185 -67 256 -113 25 -16 51 -29 57 -29 19 0 72 122 88 205 31 162 16 409 -37
605 -27 101 -98 248 -144 298 -110 122 -380 239 -721 313 l-112 24 -31 116
c-18 64 -52 164 -76 223 -132 325 -288 451 -629 511 -79 13 -206 21 -206 11z"/>
<path d="M6185 7413 c3 -43 8 -90 11 -104 l5 -27 -396 -132 c-218 -73 -394
-134 -391 -137 2 -2 98 -49 212 -103 160 -76 211 -97 225 -90 26 14 129 12
181 -4 l45 -13 94 100 c112 120 258 243 328 277 28 14 50 31 51 38 0 23 -93
113 -175 167 -74 49 -176 105 -191 105 -3 0 -3 -35 1 -77z"/>
<path d="M5070 7224 c-69 -30 -131 -116 -160 -222 -9 -35 -17 -46 -43 -54 -74
-26 -248 -122 -312 -173 -117 -94 -167 -169 -185 -278 -12 -80 1 -189 36 -297
27 -81 113 -251 129 -257 11 -3 77 105 189 312 99 182 149 231 320 314 67 33
157 71 201 85 91 29 301 81 370 92 26 3 43 10 38 15 -7 7 -115 58 -378 179
l-70 32 75 68 74 69 -30 38 c-64 79 -174 112 -254 77z"/>
<path d="M4245 7206 c-129 -32 -308 -156 -557 -389 -60 -55 -108 -104 -108
-108 0 -5 28 -9 63 -9 132 0 242 -49 284 -125 11 -22 33 -96 48 -165 45 -206
39 -199 294 -369 82 -55 122 -77 118 -65 -4 11 -33 98 -66 194 -66 191 -97
337 -86 409 6 42 16 55 119 156 62 61 165 151 229 200 64 50 116 95 116 101 1
6 -23 30 -51 52 -128 97 -291 145 -403 118z"/>
<path d="M2858 7085 c-109 -17 -201 -34 -204 -38 -11 -11 34 -142 81 -233 57
-114 128 -201 206 -253 34 -23 63 -40 64 -39 2 2 -2 53 -7 113 -13 140 2 295
37 401 14 42 24 78 23 79 -2 1 -92 -12 -200 -30z"/>
<path d="M6538 7050 c-88 -27 -217 -111 -326 -214 l-66 -63 110 -6 c354 -21
433 -146 300 -473 l-35 -86 103 -217 c111 -230 126 -279 151 -466 8 -65 17
-120 19 -122 2 -2 15 24 29 59 62 156 74 333 29 413 -61 108 -74 147 -74 210
0 73 9 107 69 239 67 147 86 236 81 365 -6 135 -31 204 -101 278 -66 70 -116
93 -198 92 -35 0 -76 -4 -91 -9z"/>
<path d="M5984 6666 c233 -120 351 -258 365 -426 l6 -75 33 47 c51 74 100 185
107 243 9 69 -7 118 -49 150 -69 52 -235 91 -436 101 l-115 6 89 -46z"/>
<path d="M5515 6625 c-299 -63 -498 -176 -566 -319 -16 -33 -27 -62 -24 -64 2
-2 32 6 67 19 55 20 80 23 208 23 150 -1 258 -18 408 -64 35 -11 67 -20 72
-20 4 0 32 38 63 83 l55 84 -77 132 c-43 72 -82 136 -87 140 -5 5 -56 -1 -119
-14z"/>
<path d="M5835 6548 c49 -140 68 -237 64 -327 -4 -70 -8 -84 -35 -123 -38 -53
-178 -161 -285 -219 -43 -24 -79 -48 -79 -53 0 -16 249 2 332 23 188 49 290
146 305 294 7 72 -23 172 -75 252 -50 76 -224 245 -252 245 -4 0 8 -42 25 -92z"/>
<path d="M3380 6557 c-76 -26 -127 -62 -165 -117 -50 -73 -183 -463 -226 -665
-26 -126 -36 -352 -20 -463 41 -278 224 -552 440 -660 45 -23 97 -44 115 -47
30 -6 34 -11 45 -59 15 -69 61 -163 100 -204 80 -85 227 -101 459 -50 l52 11
0 46 c0 65 -27 291 -46 386 -30 148 -51 196 -164 380 -220 357 -286 525 -260
658 13 69 30 105 71 158 l29 37 -55 7 c-78 9 -166 56 -201 107 -25 36 -29 50
-29 112 0 100 41 182 141 281 40 41 70 76 66 79 -19 11 -134 26 -206 26 -57 0
-100 -7 -146 -23z"/>
<path d="M3792 6456 c-102 -75 -150 -162 -139 -253 9 -82 60 -122 205 -163
105 -30 106 -33 110 -255 l4 -181 66 -34 c139 -72 241 -172 357 -350 66 -100
185 -217 258 -254 67 -33 140 -43 177 -24 53 28 117 174 170 387 12 46 20 85
18 86 -2 2 -32 11 -68 20 -93 23 -251 104 -350 179 -47 35 -152 128 -235 206
-176 167 -213 198 -280 235 -125 68 -192 187 -211 374 -3 39 -10 71 -14 71 -4
0 -35 -20 -68 -44z"/>
<path d="M2850 6426 c0 -77 -30 -277 -56 -376 -37 -141 -80 -222 -165 -310
-40 -41 -99 -115 -132 -165 -67 -100 -181 -328 -167 -333 5 -2 52 11 106 28
53 17 101 29 107 27 5 -1 -8 -16 -30 -33 -22 -16 -60 -52 -85 -80 -156 -176
-125 -371 91 -584 60 -59 100 -88 190 -135 131 -69 187 -119 230 -203 76 -150
131 -168 348 -111 144 38 263 48 313 27 19 -8 82 -51 140 -95 348 -266 741
-475 980 -522 73 -14 180 -20 180 -10 0 5 -142 136 -315 292 l-315 285 -148 5
c-121 4 -163 9 -237 31 -170 51 -329 154 -517 335 -288 276 -463 591 -499 897
-26 218 54 745 142 935 18 38 30 71 28 74 -7 6 -169 65 -180 65 -5 0 -9 -20
-9 -44z"/>
<path d="M5239 6193 c-68 -42 -122 -190 -154 -416 -6 -48 -6 -49 17 -42 38 12
241 120 327 175 204 131 190 219 -47 279 -96 25 -109 25 -143 4z"/>
<path d="M4930 6144 c-69 -12 -139 -26 -156 -29 -28 -5 -35 -14 -62 -74 -17
-38 -34 -92 -38 -121 -6 -47 -4 -53 21 -81 16 -16 51 -37 79 -48 74 -27 206
-55 215 -45 6 7 75 337 84 403 3 21 -7 21 -143 -5z"/>
<path d="M6384 6016 c-109 -110 -208 -183 -302 -221 -84 -34 -387 -78 -957
-140 -82 -9 -151 -18 -153 -20 -14 -14 304 -146 479 -200 208 -63 340 -77 468
-50 188 39 284 96 448 262 145 149 167 186 167 293 0 71 -26 181 -42 179 -4 0
-53 -47 -108 -103z"/>
<path d="M6564 5696 c-70 -48 -162 -148 -217 -237 -76 -123 -167 -179 -326
-202 -96 -14 -242 2 -366 39 -49 15 -112 30 -140 35 -152 26 -340 -79 -473
-265 -40 -55 -49 -53 140 -30 159 19 458 21 547 4 72 -13 141 -45 191 -87 44
-37 104 -130 120 -187 16 -57 21 -61 51 -37 49 38 477 319 557 365 46 27 81
51 79 55 -50 94 -81 231 -98 436 -6 77 -12 141 -13 142 -1 1 -24 -13 -52 -31z"/>
<path d="M3837 5610 c109 -187 281 -527 357 -708 91 -217 107 -276 115 -442 6
-118 12 -155 30 -197 26 -58 102 -136 221 -225 109 -82 208 -171 301 -273 92
-100 260 -300 316 -376 21 -27 40 -49 44 -49 4 0 82 82 174 183 124 136 165
187 162 202 -3 11 -15 56 -27 100 -82 304 16 593 267 781 43 33 93 66 111 73
18 7 32 19 32 25 0 6 -38 48 -84 92 -132 128 -265 184 -441 184 -111 0 -217
-25 -373 -86 -179 -70 -248 -93 -311 -100 -76 -8 -151 14 -213 63 -26 21 -178
191 -339 378 -160 187 -307 356 -327 375 l-35 35 20 -35z"/>
<path d="M7485 5276 c-197 -67 -800 -349 -1120 -524 -369 -201 -575 -341 -635
-431 -55 -82 -90 -205 -90 -316 0 -45 24 -182 33 -191 5 -6 361 116 492 167
61 24 153 66 205 92 52 27 108 53 124 58 44 13 140 -11 331 -83 244 -93 282
-102 405 -103 98 0 110 2 172 32 79 37 154 108 185 173 38 82 45 147 37 340
-8 201 -1 245 46 302 76 92 335 168 572 168 38 0 68 4 68 9 0 26 -222 178
-355 243 -185 89 -335 110 -470 64z"/>
<path d="M6152 3841 l-302 -106 -250 -195 c-137 -107 -249 -198 -249 -202 -1
-12 173 -22 384 -21 295 1 451 28 552 95 35 24 84 112 117 210 25 75 57 248
54 288 l-3 37 -303 -106z"/>
<path d="M3297 3478 c-279 -345 -437 -740 -413 -1034 32 -396 293 -719 682
-845 65 -21 67 -23 40 -30 -17 -5 -82 -11 -145 -14 l-115 -5 -115 -88 c-276
-210 -521 -420 -521 -447 0 -17 79 -14 293 11 116 13 367 57 402 70 8 4 35
-20 71 -65 32 -39 61 -68 65 -63 4 4 30 49 57 101 l50 94 119 44 c145 53 350
152 460 221 46 29 88 52 94 52 6 0 61 -27 121 -60 61 -34 113 -59 115 -56 3 2
0 69 -5 148 l-11 143 112 115 c132 135 188 200 285 331 l71 97 93 -93 c306
-304 641 -418 1005 -341 223 48 423 182 564 380 154 216 279 636 279 936 l0
66 -118 -57 c-120 -57 -271 -118 -349 -138 -22 -6 -139 -13 -260 -14 -177 -3
-237 -8 -319 -25 -194 -42 -396 -124 -555 -227 -38 -25 -72 -45 -74 -45 -2 0
12 35 31 78 100 215 198 461 188 471 -3 3 -42 8 -88 9 l-81 4 -65 -128 -65
-128 -78 -22 c-43 -12 -81 -25 -84 -28 -3 -3 11 -30 32 -60 l37 -55 -23 -38
c-46 -76 -124 -190 -198 -290 -85 -117 -63 -107 -271 -124 -74 -6 -137 -13
-139 -15 -2 -2 28 -39 68 -83 39 -43 71 -85 71 -93 0 -18 -241 -238 -261 -238
-3 0 -4 42 -1 93 9 177 -31 393 -103 560 -63 146 -119 221 -310 419 -99 102
-261 279 -360 391 -99 113 -185 206 -192 206 -6 1 -45 -41 -86 -91z"/>
</g>
</svg>
