<?xml version="1.0" standalone="no"?>
<!DOCTYPE svg PUBLIC "-//W3C//DTD SVG 20010904//EN"
 "http://www.w3.org/TR/2001/REC-SVG-20010904/DTD/svg10.dtd">
<svg version="1.0" xmlns="http://www.w3.org/2000/svg"
 width="2000.000000pt" height="2000.000000pt" viewBox="0 0 2000.000000 2000.000000"
 preserveAspectRatio="xMidYMid meet">

<g transform="translate(0.000000,2000.000000) scale(0.100000,-0.100000)"
fill="#ff4b6e" stroke="none">
<path d="M9815 18913 c-192 -25 -364 -148 -562 -398 -35 -44 -73 -82 -85 -85
-12 -3 -24 -12 -26 -19 -3 -10 1 -12 19 -7 13 3 76 16 139 28 93 17 154 22
320 22 304 1 470 -33 810 -166 207 -81 342 -118 435 -118 64 0 151 19 295 63
63 20 134 39 157 42 41 6 42 8 37 38 -3 18 -21 65 -41 105 -46 97 -118 169
-219 219 l-78 38 -140 -1 c-78 -1 -213 -3 -301 -5 -189 -5 -199 -1 -355 111
-169 122 -261 152 -405 133z"/>
<path d="M8450 18535 c-145 -29 -263 -94 -365 -200 -114 -118 -163 -225 -199
-433 -43 -243 -58 -279 -190 -447 -132 -168 -174 -264 -258 -583 -123 -470 -9
-991 369 -1695 63 -117 122 -215 142 -234 20 -19 78 -55 130 -81 l94 -47 107
0 c103 0 107 1 163 35 31 19 89 67 127 107 39 40 98 91 130 114 33 23 60 47
60 53 0 6 -12 47 -26 91 -57 179 -68 423 -29 657 14 84 14 100 2 130 -14 33
-66 97 -257 318 -222 256 -286 411 -246 599 19 90 57 174 124 272 73 109 110
189 136 292 25 100 68 179 217 397 101 148 192 261 304 378 l90 94 -35 30
c-158 134 -389 194 -590 153z"/>
<path d="M9769 18350 c-324 -31 -617 -164 -837 -381 -120 -118 -271 -371 -375
-629 -30 -75 -79 -183 -109 -240 -64 -125 -81 -193 -81 -321 1 -117 27 -220
86 -333 51 -101 181 -235 272 -283 l60 -32 -3 122 c-3 153 -15 230 -51 320
-105 265 -73 450 115 667 36 41 85 110 111 155 88 152 229 265 374 300 116 27
188 20 386 -37 36 -10 53 -9 115 7 139 36 234 14 345 -82 l55 -46 76 41 c210
110 372 109 472 -4 69 -79 136 -263 150 -414 4 -48 16 -102 25 -119 27 -53 88
-106 190 -166 278 -164 460 -394 565 -713 71 -221 74 -317 13 -567 -31 -125
-37 -168 -38 -260 0 -100 3 -116 27 -169 16 -32 44 -80 63 -106 45 -62 65
-110 65 -158 0 -52 27 -77 72 -68 58 11 214 94 298 157 185 140 312 343 360
579 46 220 8 476 -97 660 -14 25 -66 109 -115 188 -102 163 -160 280 -183 367
-11 39 -20 138 -25 280 -7 165 -15 240 -30 299 -35 139 -108 235 -219 288 -60
29 -77 32 -183 36 -111 4 -118 6 -152 34 -19 16 -64 73 -99 126 -73 111 -117
154 -197 191 -53 25 -62 26 -250 27 -268 1 -353 23 -688 178 -78 36 -175 75
-215 86 -85 24 -227 32 -348 20z"/>
<path d="M9399 17580 c-127 -22 -214 -87 -323 -238 -46 -65 -116 -157 -155
-205 -86 -107 -116 -163 -131 -248 -11 -61 -7 -155 9 -215 6 -25 13 -18 99
103 237 334 299 374 757 498 94 25 237 71 318 103 l148 57 -3 35 -3 35 -85 17
c-47 10 -152 22 -235 27 -82 5 -165 14 -183 20 -49 15 -161 21 -213 11z"/>
<path d="M10515 17507 c-58 -20 -96 -41 -216 -122 -203 -137 -352 -202 -594
-260 -255 -62 -356 -103 -468 -190 -74 -59 -138 -141 -187 -240 -61 -123 -75
-187 -75 -350 1 -127 3 -148 28 -219 36 -101 60 -142 144 -239 37 -43 95 -117
128 -165 37 -53 68 -88 81 -90 20 -3 20 -3 2 135 -10 76 -25 172 -35 213 -70
303 65 695 310 901 79 67 167 112 274 140 163 44 427 21 612 -55 83 -34 123
-65 178 -140 56 -76 85 -132 120 -233 25 -74 26 -88 27 -288 l1 -210 44 -130
c75 -225 136 -323 326 -523 118 -124 144 -142 204 -142 113 0 201 205 201 467
0 185 -35 332 -125 518 -97 201 -206 333 -365 440 -237 158 -308 260 -350 502
-24 138 -62 229 -110 263 -39 28 -101 34 -155 17z"/>
<path d="M12660 17449 c-130 -25 -274 -142 -340 -274 -61 -124 -53 -265 24
-419 39 -76 66 -116 236 -346 137 -185 188 -326 197 -540 4 -110 1 -152 -15
-230 -35 -172 -100 -305 -216 -444 -36 -43 -66 -87 -66 -98 0 -54 195 -167
333 -193 354 -67 676 118 784 452 35 106 42 260 18 368 -23 103 -86 225 -196
375 -221 304 -260 381 -266 530 -3 57 2 143 11 215 27 203 19 293 -37 398 -83
157 -277 243 -467 206z"/>
<path d="M10250 16966 c-25 -7 -74 -25 -110 -41 -53 -22 -86 -29 -180 -34
-108 -7 -119 -9 -189 -46 -153 -81 -231 -183 -231 -305 0 -57 5 -74 33 -120
38 -64 62 -74 78 -33 45 106 64 139 111 189 93 99 225 156 363 157 70 1 89 -3
147 -30 37 -17 89 -53 119 -82 29 -28 54 -50 55 -48 1 1 23 45 48 97 63 131
59 190 -17 257 -59 51 -136 65 -227 39z"/>
<path d="M7245 16876 c-11 -7 -34 -16 -51 -20 -93 -20 -343 -214 -569 -441
-178 -178 -278 -325 -335 -491 -32 -92 -31 -94 43 -77 121 29 288 -10 423 -98
135 -88 247 -215 440 -501 l59 -88 142 -68 c78 -38 193 -86 255 -107 62 -21
117 -42 123 -46 15 -14 45 -10 45 6 0 8 -7 15 -15 15 -10 0 -64 98 -151 273
-286 571 -369 803 -405 1128 -13 115 -7 359 11 452 14 71 11 82 -15 63z"/>
<path d="M10090 16624 c-38 -8 -152 -45 -183 -61 -50 -25 -110 -87 -133 -138
-40 -85 -39 -87 76 -111 l101 -21 25 53 c47 100 126 144 276 153 l98 6 -26 33
c-50 63 -152 101 -234 86z"/>
<path d="M10589 16558 c-31 -66 -41 -78 -109 -125 -185 -128 -232 -166 -285
-230 -62 -75 -166 -277 -211 -408 -14 -44 -35 -97 -46 -117 -11 -23 -14 -38
-7 -38 41 0 305 148 427 240 114 87 273 255 310 330 37 73 48 161 32 249 -11
59 -57 171 -70 171 -4 0 -22 -33 -41 -72z"/>
<path d="M10165 16379 c-117 -59 -120 -62 -103 -142 l13 -65 103 98 c95 92
101 100 92 124 -5 14 -13 26 -17 26 -5 0 -44 -19 -88 -41z"/>
<path d="M9469 16293 c-6 -21 -14 -83 -16 -139 -6 -124 16 -225 77 -347 36
-72 117 -199 169 -266 l18 -24 56 68 c61 74 84 117 128 241 16 45 45 115 64
155 42 89 44 114 8 146 -23 20 -458 202 -485 203 -4 0 -12 -17 -19 -37z"/>
<path d="M8891 15920 c-57 -213 -73 -315 -74 -455 -1 -122 14 -254 32 -284 6
-9 68 19 250 116 132 70 239 133 237 139 -6 15 -385 576 -400 592 -11 11 -19
-9 -45 -108z"/>
<path d="M10633 15939 c-159 -165 -332 -290 -538 -389 -125 -60 -211 -92 -482
-180 -336 -109 -778 -361 -1012 -578 l-84 -77 169 -54 c93 -29 241 -79 329
-111 88 -32 187 -63 220 -70 84 -18 227 -15 305 5 36 9 200 82 365 162 292
142 1196 591 1204 599 5 5 -370 773 -380 780 -4 2 -47 -37 -96 -87z"/>
<path d="M6625 15461 c-71 -16 -174 -38 -227 -51 l-98 -22 49 -53 c131 -144
197 -301 208 -492 8 -138 -7 -241 -77 -523 -74 -295 -82 -343 -82 -461 0 -122
25 -218 97 -365 44 -91 64 -120 114 -167 153 -141 377 -195 761 -184 217 7
391 27 683 82 171 31 202 34 239 24 58 -15 98 -61 131 -151 51 -141 147 -217
284 -226 121 -8 177 19 395 186 54 41 95 78 93 82 -3 4 -57 45 -121 91 -331
235 -561 461 -717 705 -25 39 -60 82 -77 94 -20 14 -79 34 -155 51 -205 46
-326 104 -441 212 -83 78 -132 147 -227 324 -68 126 -348 607 -440 755 -75
121 -158 140 -392 89z"/>
<path d="M11355 15190 c-11 -5 -99 -41 -195 -81 -203 -82 -354 -156 -715 -352
-576 -312 -785 -393 -1046 -404 -154 -7 -238 8 -412 74 -67 25 -336 116 -597
203 -483 160 -574 196 -874 339 -93 45 -170 81 -172 81 -4 0 24 -40 148 -210
51 -69 112 -162 137 -207 101 -182 189 -272 336 -343 124 -60 274 -90 457 -90
43 0 157 -12 255 -26 144 -22 218 -27 388 -28 l210 -1 82 32 c183 72 433 119
793 148 301 25 465 65 654 163 231 118 436 329 570 583 42 80 44 87 30 107
-17 24 -20 25 -49 12z"/>
<path d="M11563 15188 c-6 -7 -58 -107 -117 -223 -59 -115 -122 -231 -141
-257 -76 -103 -317 -289 -496 -383 -201 -104 -380 -149 -663 -165 -259 -15
-463 -49 -665 -111 -279 -86 -477 -94 -705 -27 -38 11 -128 25 -200 32 l-131
12 -3 -29 c-3 -21 9 -48 41 -96 155 -233 395 -456 659 -614 132 -79 362 -188
408 -194 80 -11 128 20 476 308 337 280 447 360 1174 854 483 329 494 336 527
386 36 55 29 103 -48 332 -56 166 -65 187 -85 187 -12 0 -26 -6 -31 -12z"/>
<path d="M12275 14866 c-137 -27 -248 -82 -320 -156 -84 -88 -568 -440 -1320
-959 -477 -330 -510 -355 -671 -514 -139 -135 -150 -158 -142 -275 7 -98 59
-193 163 -297 59 -60 101 -92 161 -123 l82 -42 37 -87 c156 -373 231 -806 205
-1188 -13 -198 -29 -305 -45 -305 -7 0 -30 14 -51 31 -73 58 -131 81 -221 87
-72 4 -83 3 -83 -12 0 -9 4 -16 9 -16 16 0 170 -150 215 -209 58 -76 69 -98
105 -226 46 -164 77 -326 212 -1115 122 -711 122 -716 122 -875 0 -154 -7
-211 -43 -343 l-11 -44 -37 53 c-20 29 -59 67 -85 86 -48 32 -122 61 -132 51
-3 -2 6 -32 19 -65 82 -201 108 -480 62 -683 -15 -66 -251 -557 -386 -802 -72
-130 -81 -136 -141 -95 -26 17 -48 50 -90 137 l-56 115 18 145 c53 438 53 775
-1 994 -26 102 -81 214 -138 278 -26 28 -100 91 -167 141 -66 50 -158 122
-205 160 -190 156 -489 337 -870 529 -191 96 -256 125 -261 115 -5 -7 -17 -59
-29 -116 -72 -353 -79 -742 -19 -1046 87 -441 259 -688 609 -873 137 -73 269
-123 535 -202 248 -74 335 -107 373 -143 31 -29 102 -169 140 -279 37 -103 72
-277 72 -354 0 -55 -105 -413 -266 -905 -42 -130 -76 -258 -100 -380 -19 -101
-60 -285 -89 -409 -93 -389 -98 -420 -102 -725 -4 -200 -1 -309 11 -420 9 -82
20 -224 26 -315 6 -91 24 -300 41 -465 52 -512 49 -811 -11 -1205 -29 -188
-82 -390 -134 -512 -6 -13 -1 -19 21 -24 79 -18 176 -49 240 -79 l71 -33 25
57 c37 84 44 114 61 256 30 244 37 340 43 590 6 273 -1 430 -48 1030 -40 521
-47 732 -25 857 33 197 98 351 211 503 78 105 134 164 228 243 116 97 93 95
-144 -12 -189 -86 -207 -92 -232 -74 -24 18 -39 118 -39 258 0 95 7 151 41
320 157 777 331 1348 590 1933 34 76 131 281 215 455 225 464 312 678 372 917
54 218 73 264 146 362 81 108 188 219 276 287 57 43 82 54 256 107 829 251
1121 558 1232 1294 22 141 30 574 15 776 -13 165 -44 405 -54 416 -13 12 -546
-307 -887 -532 -493 -324 -745 -535 -819 -686 -52 -107 -65 -176 -64 -339 0
-161 16 -272 68 -475 34 -133 99 -327 141 -424 l24 -54 -47 -51 c-127 -138
-185 -197 -189 -193 -11 11 -145 727 -188 1007 -14 91 -57 462 -96 825 -63
595 -69 668 -60 745 13 112 13 333 -1 501 -8 111 -16 149 -44 224 -61 163 -80
318 -44 361 16 19 101 18 147 -2 20 -8 69 -37 109 -65 147 -102 274 -145 400
-137 101 6 123 35 196 264 54 168 91 328 111 484 32 238 100 402 220 528 94
99 205 159 456 247 237 83 329 131 417 220 150 152 224 400 182 607 -12 61
-93 233 -138 295 -24 33 -41 45 -82 57 -75 23 -221 28 -304 12z m319 -3827
c-109 -268 -325 -637 -557 -949 -143 -193 -221 -284 -392 -460 -199 -204 -280
-322 -320 -463 l-15 -52 4 63 c3 48 14 83 50 155 43 89 83 143 232 319 142
168 337 444 763 1081 139 208 255 376 257 374 2 -2 -8 -33 -22 -68z m-4158
-2091 c185 -288 372 -566 438 -653 34 -45 88 -125 121 -179 50 -81 298 -435
401 -573 l29 -37 -31 21 c-17 12 -87 77 -156 145 -112 110 -139 144 -250 313
-226 344 -698 1145 -674 1145 2 0 57 -82 122 -182z"/>
<path d="M9268 13032 c-20 -11 -74 -53 -120 -95 -115 -106 -193 -163 -258
-189 -75 -29 -190 -35 -266 -13 -93 27 -225 101 -279 155 l-49 49 -60 -32
c-40 -21 -95 -66 -161 -132 -120 -120 -180 -225 -221 -382 -44 -166 -37 -361
18 -533 32 -100 138 -300 159 -300 4 0 9 13 12 30 11 52 76 178 147 283 145
214 244 306 374 346 33 10 122 26 196 36 183 22 287 48 387 95 224 105 380
278 412 457 13 70 6 140 -18 167 -9 10 -43 32 -76 47 -72 35 -143 38 -197 11z"/>
</g>
</svg>
