<?xml version="1.0" standalone="no"?>
<!DOCTYPE svg PUBLIC "-//W3C//DTD SVG 20010904//EN"
 "http://www.w3.org/TR/2001/REC-SVG-20010904/DTD/svg10.dtd">
<svg version="1.0" xmlns="http://www.w3.org/2000/svg"
 width="811.000000pt" height="720.000000pt" viewBox="0 0 811.000000 720.000000"
 preserveAspectRatio="xMidYMid meet">

<g transform="translate(0.000000,720.000000) scale(0.100000,-0.100000)"
fill="#e0cda9" stroke="none">
<path d="M7258 7193 c23 -2 61 -2 85 0 23 2 4 4 -43 4 -47 0 -66 -2 -42 -4z"/>
<path d="M3130 7160 c0 -65 50 -122 85 -96 23 16 15 53 -21 95 -35 41 -64 41
-64 1z"/>
<path d="M2771 7036 c2 -3 60 -23 128 -45 297 -98 493 -222 694 -440 194 -210
343 -529 397 -846 20 -117 22 -154 17 -365 -5 -256 -21 -378 -78 -589 -54
-205 -153 -424 -285 -631 -81 -128 -94 -155 -54 -110 66 74 204 328 283 520
105 253 177 607 177 864 0 443 -131 827 -391 1141 -147 179 -343 327 -548 414
-104 44 -364 110 -340 87z"/>
<path d="M3418 7006 c-8 -39 5 -98 25 -110 46 -29 69 49 29 103 -26 35 -48 38
-54 7z"/>
<path d="M4725 6930 c44 -163 84 -226 189 -304 36 -27 66 -52 66 -57 0 -12 -1
-12 -72 15 -167 62 -280 144 -337 242 -63 108 -65 111 -69 91 -5 -24 80 -148
136 -197 56 -50 144 -100 232 -134 36 -13 101 -42 145 -65 47 -23 125 -51 190
-66 139 -34 171 -47 218 -93 46 -44 73 -93 82 -147 11 -72 15 -85 25 -85 20 0
9 55 -36 168 -25 64 -52 151 -60 192 -8 41 -21 84 -29 97 -18 27 -62 40 -78
24 -20 -20 -25 -11 -16 30 9 37 7 46 -21 88 -16 25 -49 60 -72 78 -48 36 -175
103 -195 103 -17 0 -17 -18 7 -172 20 -129 38 -189 59 -202 6 -4 11 -11 11
-17 0 -5 -21 7 -47 27 -25 19 -64 44 -87 56 -58 30 -148 124 -180 190 -15 31
-35 95 -44 142 -10 50 -22 86 -29 86 -8 0 -4 -28 12 -90z m383 -148 c10 -17
24 -26 35 -24 18 4 97 -52 97 -69 0 -5 -15 0 -32 11 -18 11 -40 23 -48 26 -8
3 -24 9 -35 14 -11 5 -28 11 -37 14 -11 3 -18 15 -18 31 0 33 16 32 38 -3z
m56 -154 c30 -43 12 -97 -25 -77 -19 10 -36 70 -24 88 10 18 33 13 49 -11z
m106 -4 c0 -8 -4 -12 -10 -9 -5 3 -10 13 -10 21 0 8 5 12 10 9 6 -3 10 -13 10
-21z m106 -62 c11 -7 34 -46 34 -57 0 -4 -13 7 -30 25 -16 18 -30 34 -30 36 0
6 14 4 26 -4z m-156 -37 c7 -8 8 -15 2 -15 -5 0 -15 7 -22 15 -7 8 -8 15 -2
15 5 0 15 -7 22 -15z m154 -31 c7 -19 -2 -37 -15 -29 -12 8 -12 45 0 45 5 0
12 -7 15 -16z"/>
<path d="M5140 6580 c0 -11 5 -20 10 -20 6 0 10 9 10 20 0 11 -4 20 -10 20 -5
0 -10 -9 -10 -20z"/>
<path d="M2235 6948 c-227 -13 -442 -79 -642 -196 -96 -57 -336 -251 -411
-333 -35 -38 -67 -69 -71 -69 -4 0 -8 15 -9 32 -6 75 -60 103 -134 70 -24 -10
-74 -44 -113 -75 -38 -31 -75 -57 -82 -57 -18 0 -72 -49 -88 -81 -20 -38 -19
-77 4 -120 11 -19 24 -71 29 -115 5 -43 17 -95 26 -114 9 -19 14 -26 11 -15
-10 41 -25 168 -21 172 2 3 17 -2 33 -10 15 -8 47 -18 70 -22 24 -4 45 -10 48
-14 6 -11 -65 -221 -75 -221 -11 0 -57 55 -75 90 -8 16 -28 82 -45 147 -19 74
-49 156 -79 218 -27 55 -61 129 -76 164 -55 132 -143 234 -256 299 -64 36 -69
38 -69 18 0 -7 25 -24 56 -36 69 -29 149 -100 203 -184 44 -68 115 -229 109
-248 -2 -6 -25 15 -50 48 -87 112 -144 151 -278 192 -99 29 -143 36 -138 20 3
-7 29 -16 63 -20 172 -22 275 -91 381 -255 29 -44 58 -84 63 -88 6 -3 11 -11
11 -16 0 -6 -7 -4 -15 4 -8 9 -34 22 -57 31 -59 22 -310 57 -323 45 -6 -6 1
-30 19 -67 53 -106 99 -167 151 -201 43 -28 56 -32 92 -27 l41 5 -5 -37 c-7
-52 16 -69 113 -86 44 -8 97 -22 120 -30 l40 -17 -19 -122 c-12 -78 -24 -126
-34 -134 -13 -10 -13 -14 0 -35 10 -15 17 -63 20 -138 6 -127 38 -301 68 -369
10 -24 16 -47 13 -52 -3 -5 1 -6 9 -3 8 3 19 -2 26 -9 9 -12 2 -20 -39 -47
-190 -122 -273 -387 -171 -551 l28 -45 -36 -21 c-20 -12 -76 -55 -124 -97 -48
-42 -94 -76 -102 -76 -10 0 -15 10 -15 30 0 27 -3 30 -30 30 -55 0 -54 -72 2
-135 l31 -36 -6 -97 -5 -97 19 77 c38 157 125 283 243 353 49 29 66 34 96 29
27 -4 45 -1 64 11 21 14 43 17 124 13 84 -3 106 -8 165 -37 129 -62 266 -218
309 -353 16 -51 20 -91 20 -203 1 -152 -11 -215 -63 -351 -30 -77 -33 -110 -6
-57 39 75 89 222 97 286 13 96 12 281 -1 337 -28 120 -131 266 -245 343 -89
60 -167 87 -279 94 -82 6 -91 8 -113 35 -25 30 -50 36 -70 16 -9 -9 -8 -16 4
-29 13 -15 13 -18 -1 -33 -22 -22 -58 -20 -79 3 -9 10 -26 42 -37 70 -56 147
18 343 172 456 57 42 66 45 123 45 65 0 81 7 147 66 27 23 56 36 110 48 67 16
225 40 324 50 22 2 -4 2 -57 -1 -90 -4 -271 -26 -309 -38 -14 -5 -18 5 -24 57
-12 106 -42 142 -113 136 l-37 -3 -1 -50 c-2 -80 -3 -84 -28 -100 -21 -14 -28
-14 -59 -2 -81 34 -128 166 -128 363 -1 103 17 262 31 277 4 5 28 -18 53 -50
66 -86 214 -222 288 -266 179 -105 400 -158 784 -187 76 -6 141 -12 143 -14 2
-2 -10 -31 -27 -63 -29 -59 -31 -60 -106 -87 -42 -15 -158 -68 -257 -117 -179
-89 -213 -100 -236 -77 -17 17 -15 38 5 38 16 0 16 1 1 17 -14 13 -20 14 -32
3 -23 -18 -20 -57 5 -71 21 -11 78 -8 144 7 l30 7 -40 -45 c-22 -25 -59 -58
-83 -73 -40 -27 -41 -29 -26 -46 16 -18 15 -21 -20 -53 -21 -20 -32 -37 -26
-41 16 -10 2 -47 -28 -73 -18 -16 -23 -26 -14 -29 19 -7 14 -41 -7 -55 -15 -9
-17 -15 -9 -25 14 -17 28 -17 28 1 0 8 7 16 14 19 11 4 13 16 9 40 -4 30 -2
36 17 42 17 5 20 12 16 30 -9 35 13 77 36 69 15 -5 18 0 18 35 0 32 9 52 48
103 61 80 163 166 250 211 81 42 210 89 223 81 5 -3 9 -18 9 -34 0 -16 5 -40
11 -54 10 -20 8 -30 -11 -56 -31 -44 -40 -127 -15 -136 18 -7 68 37 92 81 10
16 14 17 42 5 36 -15 36 -15 15 -66 -21 -49 -23 -164 -5 -227 18 -62 83 -135
158 -175 92 -50 91 -49 68 -66 -15 -11 -17 -18 -9 -26 17 -17 47 -4 65 29 12
20 32 34 70 46 73 24 133 67 153 109 30 64 17 106 -34 106 -29 0 -60 -27 -60
-53 0 -21 19 -32 33 -18 22 22 47 13 47 -17 0 -61 -95 -115 -200 -115 -111 0
-212 62 -263 158 -28 56 -33 173 -10 239 18 49 19 50 74 61 31 6 68 19 83 28
32 21 64 70 73 110 3 16 15 32 26 36 20 8 20 8 -1 13 -24 7 -31 43 -9 51 7 3
5 6 -5 6 -10 1 -32 10 -50 21 -44 27 -54 25 -67 -10 -7 -23 -23 -36 -57 -51
-46 -21 -47 -21 -73 -1 -35 26 -33 35 9 49 l35 12 -42 0 c-39 1 -43 3 -43 25
0 14 4 36 10 51 10 25 12 26 72 20 255 -25 389 -54 503 -111 81 -39 175 -118
229 -193 30 -41 36 -57 35 -97 l0 -49 -17 25 c-31 46 -120 135 -154 153 -28
16 -27 13 12 -19 69 -59 116 -112 139 -160 23 -46 21 -64 -7 -64 -14 0 -13 -2
3 -14 17 -12 17 -18 6 -77 -42 -217 -130 -386 -310 -593 -191 -220 -450 -433
-1006 -826 -269 -190 -355 -256 -485 -372 -292 -260 -504 -611 -600 -993 -57
-223 -62 -435 -20 -727 29 -205 58 -319 81 -325 11 -3 57 -57 102 -121 101
-141 275 -318 394 -399 90 -62 281 -169 288 -161 2 2 -48 35 -113 73 -205 122
-331 226 -438 359 -103 128 -123 170 -135 278 -6 53 -9 182 -6 298 6 229 19
303 83 458 99 240 218 388 462 571 39 30 72 59 72 63 0 18 -31 5 -101 -41
-123 -81 -203 -154 -282 -259 -136 -181 -195 -301 -244 -499 -26 -103 -27
-119 -25 -331 0 -123 4 -232 7 -243 4 -10 2 -19 -3 -19 -10 0 -49 84 -73 155
-23 67 -18 326 9 463 70 353 235 654 488 891 288 269 680 428 1235 500 185 25
376 41 939 81 655 46 882 73 1176 135 376 81 706 201 949 346 258 153 528 396
723 649 36 47 68 88 71 92 3 4 40 0 81 -8 41 -8 113 -16 160 -19 l85 -4 -71 8
c-90 11 -234 42 -234 51 0 3 6 14 13 25 12 16 18 16 47 6 42 -14 50 -8 10 9
-35 14 -36 17 -11 49 l18 23 59 -30 c109 -55 184 -72 313 -72 163 1 222 15
298 73 67 51 157 146 186 196 27 46 14 38 -18 -11 -45 -69 -127 -149 -170
-169 -29 -14 -64 -19 -132 -19 -180 0 -268 35 -386 154 -44 43 -73 68 -66 55
20 -39 123 -133 179 -163 75 -41 142 -56 255 -56 99 -1 100 -1 70 -18 -36 -20
-164 -21 -246 -2 -70 16 -182 69 -241 114 -44 34 -46 38 -37 66 6 16 9 36 7
46 -3 14 -6 13 -30 -5 -32 -26 -35 -26 -48 -1 -10 18 -5 23 45 47 53 26 57 27
66 10 12 -21 29 -13 29 14 0 24 55 50 168 79 84 22 128 25 137 10 18 -29 181
24 249 81 89 74 101 206 22 240 -15 6 -7 8 29 4 177 -16 196 -17 222 -6 16 6
35 24 44 40 11 19 28 31 50 36 19 4 50 16 70 25 41 21 109 93 109 116 0 26 29
73 82 131 52 57 87 122 88 159 0 12 16 44 35 70 51 70 65 106 65 165 l0 51
-32 -6 c-18 -3 -136 -19 -263 -36 -475 -63 -564 -87 -677 -181 -26 -21 -49
-39 -52 -39 -16 0 1 25 69 99 55 59 87 105 115 166 68 141 238 348 372 451
165 128 407 213 656 233 57 4 108 13 114 19 6 6 8 22 4 36 -9 35 -24 34 -213
-14 -472 -121 -636 -225 -856 -541 -48 -70 -94 -132 -101 -138 -23 -19 -29 4
-16 59 12 52 23 66 54 71 29 6 31 27 2 31 l-25 3 48 115 c156 375 311 592 536
752 61 44 172 100 242 122 59 20 76 35 71 68 -3 19 -9 23 -40 22 -28 -1 -72
-23 -185 -94 -304 -192 -485 -422 -637 -815 -26 -66 -54 -137 -63 -157 -16
-38 -37 -50 -45 -26 -3 8 -9 4 -17 -10 -12 -22 -61 -32 -61 -12 0 19 -17 10
-28 -15 -12 -27 -63 -46 -70 -27 -6 19 -20 14 -27 -8 -4 -11 -18 -28 -32 -37
-24 -16 -26 -16 -39 2 -8 10 -15 17 -16 14 -2 -2 -11 -21 -22 -41 -10 -20 -32
-49 -48 -65 -24 -23 -30 -25 -38 -13 -5 8 -10 32 -10 52 0 49 -15 85 -38 92
-17 6 -146 169 -158 200 -8 21 46 188 88 273 117 240 353 358 545 273 51 -22
87 -74 72 -102 -12 -23 -37 -23 -61 -1 -17 15 -20 15 -28 3 -20 -31 -10 -59
27 -79 34 -18 60 -13 94 17 l31 28 -20 41 c-26 50 -94 110 -142 124 -20 6 -77
10 -126 8 -80 -4 -99 -8 -165 -41 -112 -55 -178 -127 -244 -263 -30 -60 -61
-139 -70 -175 -9 -36 -20 -68 -23 -72 -4 -3 -43 23 -87 59 -44 35 -108 81
-142 101 -34 20 -64 46 -67 57 -5 16 -8 17 -15 6 -14 -21 -49 -3 -130 66 -60
52 -62 53 -23 12 23 -25 42 -47 42 -50 0 -3 -30 -3 -67 -1 -64 4 -72 8 -156
68 -86 62 -123 81 -97 49 7 -8 36 -32 64 -52 28 -20 61 -45 73 -56 l23 -20
-41 -44 c-22 -24 -47 -60 -55 -79 -20 -48 -20 -161 1 -210 18 -44 76 -108 117
-130 15 -8 31 -28 37 -47 12 -36 50 -61 76 -51 19 8 19 13 -2 36 -21 24 -6 41
33 36 35 -4 58 -45 90 -163 13 -44 23 -71 23 -60 1 26 -35 174 -50 208 -10 23
-9 33 12 72 29 54 21 74 -37 93 -21 7 -46 20 -56 29 -21 18 -24 76 -7 120 l11
28 24 -30 c13 -16 39 -59 58 -95 106 -201 140 -373 171 -863 20 -325 43 -458
101 -601 13 -33 24 -65 24 -71 0 -7 -18 -19 -40 -28 l-40 -15 -34 41 c-18 23
-75 103 -126 177 -164 237 -316 407 -404 449 -166 81 -315 64 -401 -45 -21
-27 -47 -57 -58 -67 -19 -17 -20 -17 -34 3 -12 17 -18 19 -29 9 -9 -7 -12 -20
-8 -33 8 -26 22 -36 52 -36 14 0 26 -8 32 -22 8 -20 9 -19 9 13 1 19 13 59 27
87 60 121 222 146 396 60 97 -48 234 -194 411 -437 134 -183 168 -239 122
-201 -9 7 -72 86 -140 174 -68 89 -151 190 -185 226 -53 56 -51 52 18 -30 107
-129 282 -361 282 -376 0 -13 -53 -24 -116 -24 -93 0 -134 -24 -119 -70 9 -29
41 -34 96 -14 l50 18 22 -26 c25 -30 58 -47 135 -72 55 -19 63 -33 34 -59 -14
-13 -38 -17 -94 -17 -62 0 -81 -4 -109 -23 -52 -35 -79 -82 -78 -136 l0 -46
13 47 c18 65 38 93 89 117 43 21 147 30 147 13 0 -15 -118 -153 -224 -261
-354 -362 -701 -568 -1196 -710 -379 -109 -727 -153 -1605 -201 -404 -23 -625
-41 -830 -71 -489 -70 -814 -185 -1081 -382 -99 -73 -280 -259 -339 -347 -115
-174 -213 -397 -266 -610 -16 -63 -32 -119 -34 -125 -14 -27 9 195 30 300 75
373 255 712 524 989 143 147 265 242 590 463 337 228 455 313 637 459 276 221
444 386 552 542 31 45 86 122 122 170 57 77 66 95 77 157 27 157 8 362 -49
525 -52 147 -117 224 -286 343 -74 52 -132 108 -132 127 0 21 34 41 64 38 25
-2 32 -9 38 -33 4 -19 5 -12 2 18 -18 160 93 289 235 275 65 -6 116 -45 147
-112 23 -49 24 -50 24 -19 0 17 5 35 10 38 13 8 13 45 1 45 -5 0 -11 -6 -14
-12 -3 -9 -18 -2 -46 20 -80 64 -159 78 -237 43 -47 -21 -103 -83 -120 -132
-9 -27 -16 -34 -35 -32 -105 11 -151 -7 -179 -69 l-18 -40 -43 38 c-85 76 -93
78 -16 4 70 -68 92 -100 69 -100 -15 0 -195 154 -241 206 -60 67 -87 112 -111
183 -22 67 -27 181 -9 228 25 67 108 122 186 124 41 1 44 2 18 8 -24 5 -29 11
-27 30 5 46 -50 79 -77 47 -10 -12 -8 -17 8 -26 12 -6 21 -15 21 -19 0 -5 -28
-32 -63 -59 -93 -73 -127 -163 -106 -279 25 -136 103 -239 303 -398 112 -89
112 -84 -12 -106 -52 -9 -82 -9 -106 -2 -28 9 -42 7 -75 -8 -46 -20 -48 -25
-24 -51 16 -17 15 -20 -17 -53 -33 -34 -37 -35 -106 -35 -40 0 -131 5 -201 11
-431 35 -653 119 -859 324 -90 90 -171 202 -157 216 6 6 34 2 74 -11 74 -23
102 -25 97 -8 -3 7 -26 16 -53 20 -69 10 -105 27 -105 50 0 10 15 58 34 106
144 375 444 698 801 862 84 39 210 83 284 99 39 8 44 7 48 -10 7 -26 22 -24
32 5 12 29 55 36 222 36 455 0 802 -149 1125 -482 216 -223 332 -433 391 -708
15 -69 18 -130 18 -330 0 -214 -3 -260 -24 -365 -85 -442 -254 -783 -531
-1069 -162 -167 -356 -310 -650 -476 -164 -94 -192 -113 -105 -75 132 58 379
204 505 299 201 151 405 361 523 538 230 345 359 817 344 1253 -7 177 -27 299
-77 446 -129 386 -406 707 -767 888 -262 131 -491 177 -788 159z m-1244 -538
c29 -16 25 -64 -6 -78 -30 -14 -24 -39 11 -48 13 -3 24 -10 24 -14 0 -11 -62
-64 -112 -97 -39 -26 -41 -27 -54 -8 -8 10 -14 35 -14 54 0 20 -4 52 -10 71
-9 31 -7 37 22 67 31 32 82 62 106 63 7 0 22 -5 33 -10z m-623 -256 c23 -7 32
-44 10 -44 -14 0 -48 30 -48 42 0 9 7 10 38 2z m195 -45 c32 -17 50 -49 27
-49 -5 0 -10 7 -10 15 0 8 -9 15 -20 15 -25 0 -26 -16 -2 -29 15 -9 15 -10 -4
-11 -31 0 -69 33 -61 53 7 20 39 22 70 6z m-153 -29 c0 -11 7 -23 15 -26 8 -4
15 -14 15 -23 0 -9 5 -22 12 -29 13 -13 -1 -16 -17 -4 -18 13 -55 71 -55 87 0
8 7 15 15 15 8 0 15 -9 15 -20z m5537 -22 c37 -64 93 -205 117 -298 29 -111
44 -199 62 -365 l13 -120 -5 110 c-10 224 -57 435 -135 604 -22 46 -39 85 -39
87 0 2 8 4 19 4 33 0 154 -68 210 -117 l53 -48 -11 -109 c-6 -60 -10 -132 -10
-160 1 -28 4 -37 5 -21 2 17 9 77 15 135 6 58 15 111 19 118 5 10 25 -13 63
-70 32 -45 57 -88 57 -95 0 -7 11 -29 25 -49 14 -20 25 -47 25 -61 0 -13 -31
-85 -69 -161 -81 -163 -112 -244 -140 -375 -31 -143 -24 -161 9 -22 32 135 62
229 95 295 36 70 126 193 135 184 18 -20 50 -196 50 -278 0 -85 0 -86 -27 -92
-63 -13 -86 -29 -127 -88 -57 -79 -93 -152 -111 -223 -21 -82 -19 -122 3 -58
25 72 65 136 118 189 43 43 125 106 138 106 3 0 6 -20 6 -44 0 -41 -3 -46 -43
-69 -82 -48 -178 -180 -176 -242 0 -11 7 0 15 24 22 62 54 109 106 157 50 46
87 69 96 60 3 -3 -7 -66 -23 -139 -41 -194 -41 -194 -23 -179 26 21 55 100 78
212 25 118 31 135 51 135 31 0 -5 -175 -58 -280 -30 -59 -73 -123 -122 -183
-36 -44 -145 -132 -163 -132 -14 0 -65 117 -88 202 -26 97 -46 258 -65 518
-33 461 -82 673 -200 870 -41 68 -43 76 -28 88 30 22 60 14 80 -20z m-5312
-56 c-6 -7 -35 18 -35 31 0 5 9 2 20 -8 11 -10 18 -20 15 -23z m-115 -32 c13
-8 13 -10 -2 -10 -9 0 -20 5 -23 10 -8 13 5 13 25 0z m102 -134 c13 -9 17 -16
9 -16 -22 0 -51 31 -50 54 0 21 0 21 9 0 5 -12 19 -29 32 -38z m56 26 c3 -9
-2 -13 -14 -10 -9 1 -19 9 -22 16 -3 9 2 13 14 10 9 -1 19 -9 22 -16z m6217
-122 c-4 -12 -27 -51 -53 -88 -74 -109 -146 -290 -197 -496 -31 -123 -40 -146
-60 -146 -12 0 -15 14 -15 69 0 149 -35 371 -75 472 -10 25 107 109 151 109
27 0 34 4 34 20 0 24 35 40 72 33 20 -4 26 0 31 17 5 20 10 22 41 16 28 -5 36
-4 36 8 0 17 21 27 33 16 5 -5 6 -18 2 -30z m-445 -50 c0 -5 -2 -10 -4 -10 -3
0 -8 5 -11 10 -3 6 -1 10 4 10 6 0 11 -4 11 -10z m1100 -260 c22 -14 4 -38
-70 -88 -64 -44 -88 -49 -82 -16 2 10 4 33 3 50 -1 33 11 49 44 57 35 8 89 7
105 -3z m-430 -120 c40 -40 14 -97 -60 -135 -49 -25 -146 -17 -171 14 -25 31
-24 45 9 81 51 57 181 81 222 40z m-4581 -11 c83 -19 300 -179 372 -274 27
-36 46 -75 54 -110 7 -30 12 -55 11 -55 -2 0 -37 33 -78 74 -87 85 -194 144
-323 176 -80 21 -297 50 -367 50 -45 0 -47 8 -10 42 l27 26 122 -19 c67 -10
158 -28 202 -39 44 -11 85 -20 93 -20 7 0 -53 30 -135 67 -81 36 -145 68 -142
71 6 6 75 19 110 21 11 0 40 -4 64 -10z m4843 -8 c13 -5 31 -23 41 -40 l18
-31 -41 -44 c-23 -25 -50 -48 -61 -51 -13 -4 -19 -16 -19 -36 0 -37 -40 -76
-87 -85 -48 -9 -52 2 -7 23 34 16 39 23 40 53 1 19 2 40 3 47 0 6 17 21 36 33
45 28 59 53 45 80 -6 12 -8 30 -5 40 7 23 6 23 37 11z m-4561 -130 c83 -75 96
-107 15 -38 -37 31 -91 74 -121 94 -30 21 -54 42 -55 46 0 16 103 -49 161
-102z m4049 -39 c0 -11 -102 -124 -107 -118 -7 6 22 59 53 95 24 29 54 42 54
23z m280 -145 c0 -8 -9 -22 -20 -32 -23 -21 -114 -33 -124 -16 -5 7 2 11 17
11 13 0 44 11 68 24 52 29 59 30 59 13z m-230 -246 c5 -11 10 -30 10 -42 0
-31 -83 -109 -115 -109 -23 0 -21 4 25 48 42 41 50 54 50 85 0 40 13 48 30 18z
m-154 -36 c13 -33 -40 -60 -84 -44 -21 8 -30 38 -15 52 13 14 93 7 99 -8z
m-3700 -251 c-3 -31 -12 -66 -18 -78 -13 -21 -13 -21 -16 4 -5 32 18 130 31
130 6 0 7 -22 3 -56z m-65 -160 c-29 -64 -37 -50 -9 16 12 29 24 48 26 42 2
-6 -6 -32 -17 -58z m3265 21 c14 -22 15 -30 4 -50 -17 -33 -27 -31 -75 9 l-39
33 29 16 c42 23 62 21 81 -8z m-76 -54 c43 -37 44 -39 31 -65 -8 -14 -19 -26
-24 -26 -5 0 -43 22 -84 50 l-75 50 29 11 c20 7 33 7 45 0 14 -9 16 -8 12 4
-11 27 20 16 66 -24z m195 -57 c44 -32 103 -60 187 -88 63 -22 68 -26 38 -26
-50 0 -171 35 -241 70 -32 17 -59 33 -59 36 0 3 5 14 11 25 11 21 15 20 64
-17z"/>
<path d="M6031 6034 c0 -11 3 -14 6 -6 3 7 2 16 -1 19 -3 4 -6 -2 -5 -13z"/>
<path d="M6213 5510 c0 -30 2 -43 4 -27 2 15 2 39 0 55 -2 15 -4 2 -4 -28z"/>
<path d="M6915 5247 c-48 -40 1 -84 64 -57 40 16 48 40 21 62 -30 24 -54 23
-85 -5z"/>
<path d="M3650 6772 c0 -60 53 -99 66 -48 8 33 -16 80 -44 84 -20 3 -22 -1
-22 -36z"/>
<path d="M1916 6774 c-7 -19 2 -37 15 -29 12 8 12 45 0 45 -5 0 -12 -7 -15
-16z"/>
<path d="M2030 6747 c-93 -46 -204 -159 -253 -258 -60 -123 -81 -222 -74 -359
3 -63 11 -128 16 -145 8 -23 8 -18 3 25 -4 30 -6 107 -6 170 1 97 6 128 28
195 39 114 79 180 160 260 50 50 93 82 146 108 41 20 68 37 60 37 -8 0 -44
-15 -80 -33z"/>
<path d="M2175 6732 c-200 -70 -347 -236 -391 -443 -39 -181 19 -444 134 -611
59 -85 201 -211 287 -255 43 -22 28 -10 -41 35 -191 124 -317 310 -358 531
-30 159 -18 287 41 411 49 103 169 223 274 273 96 46 221 72 310 63 238 -22
462 -213 523 -446 8 -30 15 -45 15 -32 1 12 -8 48 -19 79 -11 32 -20 59 -20
60 0 2 15 9 34 17 44 18 59 44 43 77 -15 29 -50 32 -55 4 -7 -39 -20 -36 -83
19 -139 121 -198 166 -256 195 -82 41 -130 50 -253 51 -89 0 -117 -4 -185 -28z"/>
<path d="M1837 6704 c-4 -4 -7 -14 -7 -23 0 -11 3 -12 11 -4 6 6 10 16 7 23
-2 6 -7 8 -11 4z"/>
<path d="M1767 6606 c-3 -8 -2 -18 3 -21 13 -8 24 15 12 27 -6 6 -11 4 -15 -6z"/>
<path d="M6527 6606 c-6 -16 2 -28 14 -20 12 7 11 34 0 34 -5 0 -11 -6 -14
-14z"/>
<path d="M3822 6588 c-19 -23 -25 -67 -12 -83 16 -19 59 -19 66 0 7 18 -12 69
-31 85 -9 7 -15 7 -23 -2z"/>
<path d="M6456 6555 c-3 -9 0 -15 9 -15 16 0 20 16 6 24 -5 3 -11 -1 -15 -9z"/>
<path d="M6485 6490 c-44 -38 -73 -70 -104 -115 -8 -11 11 8 43 42 31 34 71
74 89 88 18 13 29 25 25 25 -4 0 -28 -18 -53 -40z"/>
<path d="M1710 6505 c0 -8 5 -15 10 -15 6 0 10 7 10 15 0 8 -4 15 -10 15 -5 0
-10 -7 -10 -15z"/>
<path d="M6394 6495 c-9 -22 1 -29 15 -11 8 10 9 16 1 21 -5 3 -13 -1 -16 -10z"/>
<path d="M6340 6430 c0 -5 5 -10 10 -10 6 0 10 5 10 10 0 6 -4 10 -10 10 -5 0
-10 -4 -10 -10z"/>
<path d="M5071 6410 c-91 -24 -152 -59 -212 -121 -49 -50 -99 -138 -99 -174 0
-33 54 -79 94 -79 84 0 140 100 75 134 -16 9 -21 7 -29 -15 -11 -29 -49 -34
-74 -9 -21 20 -20 37 3 82 29 56 88 107 164 143 61 28 79 31 165 33 53 0 122
-2 152 -6 l55 -7 -40 15 c-68 25 -170 27 -254 4z"/>
<path d="M1676 6412 c-3 -6 -1 -14 5 -17 14 -9 20 -2 10 14 -6 8 -11 9 -15 3z"/>
<path d="M5740 6390 c0 -11 7 -20 15 -20 17 0 18 2 9 24 -9 23 -24 20 -24 -4z"/>
<path d="M6296 6361 c-4 -7 -5 -15 -2 -18 9 -9 19 4 14 18 -4 11 -6 11 -12 0z"/>
<path d="M5820 6326 c0 -14 5 -26 10 -26 6 0 10 9 10 19 0 11 -4 23 -10 26 -6
4 -10 -5 -10 -19z"/>
<path d="M6350 6330 c-6 -11 -8 -20 -6 -20 3 0 10 9 16 20 6 11 8 20 6 20 -3
0 -10 -9 -16 -20z"/>
<path d="M3961 6326 c-7 -8 -11 -27 -9 -43 2 -22 9 -29 30 -31 22 -3 29 2 34
22 13 53 -25 88 -55 52z"/>
<path d="M6304 6249 c-14 -28 -24 -53 -22 -55 2 -2 16 21 31 51 15 30 25 55
22 55 -3 0 -16 -23 -31 -51z"/>
<path d="M6265 6280 c3 -5 8 -10 11 -10 2 0 4 5 4 10 0 6 -5 10 -11 10 -5 0
-7 -4 -4 -10z"/>
<path d="M5880 6255 c0 -8 5 -15 10 -15 6 0 10 7 10 15 0 8 -4 15 -10 15 -5 0
-10 -7 -10 -15z"/>
<path d="M2973 6165 c0 -38 2 -53 4 -32 2 20 2 52 0 70 -2 17 -4 1 -4 -38z"/>
<path d="M6266 6165 c-9 -26 -7 -32 5 -12 6 10 9 21 6 23 -2 3 -7 -2 -11 -11z"/>
<path d="M2401 6097 c41 -27 58 -69 39 -91 -18 -22 -47 -20 -55 4 -5 16 -10
18 -26 10 -25 -14 -24 -41 2 -74 49 -63 144 -8 119 69 -11 34 -80 105 -102
105 -6 0 4 -10 23 -23z"/>
<path d="M2838 6045 c-14 -32 2 -71 36 -86 43 -20 77 11 91 81 l6 35 -21 -33
c-25 -40 -54 -40 -58 1 -4 35 -38 37 -54 2z"/>
<path d="M4062 6058 c-6 -6 -12 -25 -12 -40 0 -21 5 -28 19 -28 25 0 43 24 39
52 -3 26 -27 35 -46 16z"/>
<path d="M1731 5934 c0 -11 3 -14 6 -6 3 7 2 16 -1 19 -3 4 -6 -2 -5 -13z"/>
<path d="M2350 5633 c0 -23 15 -39 24 -25 3 5 -1 18 -9 28 -14 18 -14 18 -15
-3z"/>
<path d="M2410 5555 c0 -8 5 -15 10 -15 6 0 10 7 10 15 0 8 -4 15 -10 15 -5 0
-10 -7 -10 -15z"/>
<path d="M1387 5480 c-36 -42 -34 -66 8 -106 39 -37 130 -70 217 -79 52 -5 52
-5 -18 14 -87 24 -169 64 -178 87 -4 10 1 25 10 36 16 17 19 17 42 2 20 -13
26 -14 33 -3 12 19 11 24 -8 48 -10 11 -32 24 -49 27 -26 5 -35 1 -57 -26z"/>
<path d="M2471 5494 c0 -11 3 -14 6 -6 3 7 2 16 -1 19 -3 4 -6 -2 -5 -13z"/>
<path d="M3015 5486 c-17 -12 -18 -18 -7 -40 13 -29 52 -36 71 -12 9 11 7 15
-9 19 -12 3 -20 13 -20 26 0 25 -9 26 -35 7z"/>
<path d="M865 5447 c81 -108 308 -236 507 -287 134 -33 347 -61 463 -59 70 2
64 3 -50 10 -403 27 -681 126 -884 314 -54 49 -60 53 -36 22z"/>
<path d="M4820 5460 c0 -5 7 -10 16 -10 8 0 12 5 9 10 -3 6 -10 10 -16 10 -5
0 -9 -4 -9 -10z"/>
<path d="M5953 5435 c0 -22 2 -30 4 -17 2 12 2 30 0 40 -3 9 -5 -1 -4 -23z"/>
<path d="M4935 5430 c-188 -38 -363 -165 -438 -321 -20 -41 -39 -87 -42 -104
-4 -16 5 -4 18 28 82 190 211 308 407 369 64 20 96 23 224 23 86 0 133 3 110
7 -52 9 -229 8 -279 -2z"/>
<path d="M4720 5420 c0 -5 7 -10 15 -10 8 0 15 5 15 10 0 6 -7 10 -15 10 -8 0
-15 -4 -15 -10z"/>
<path d="M5268 5413 c6 -2 18 -2 25 0 6 3 1 5 -13 5 -14 0 -19 -2 -12 -5z"/>
<path d="M805 5400 c3 -5 15 -10 26 -10 11 0 17 5 14 10 -3 6 -15 10 -26 10
-11 0 -17 -4 -14 -10z"/>
<path d="M3180 5373 c-23 -8 -70 -55 -86 -85 -22 -43 -17 -145 16 -300 17 -78
35 -181 40 -228 l9 -85 -4 90 c-3 50 -16 153 -30 230 -28 159 -31 222 -11 268
21 50 76 96 127 106 l44 9 -45 0 c-25 0 -52 -2 -60 -5z"/>
<path d="M4631 5371 c-10 -7 -10 -10 -1 -16 6 -4 16 -3 22 3 13 13 -4 23 -21
13z"/>
<path d="M4930 5355 c-211 -58 -382 -228 -435 -431 -8 -33 -15 -100 -15 -154
0 -155 49 -273 167 -402 148 -161 154 -172 103 -183 -35 -8 -37 -15 -11 -39
30 -28 73 -17 93 22 22 45 19 44 68 27 72 -26 69 -16 -5 13 -38 16 -89 41
-113 56 -61 38 -155 137 -195 204 -60 99 -72 151 -71 297 0 116 3 137 27 199
68 173 218 314 390 367 60 19 86 21 200 17 118 -4 143 -8 234 -40 56 -19 128
-50 160 -69 79 -46 199 -167 262 -264 56 -85 72 -105 51 -65 -30 59 -98 150
-159 214 -103 107 -228 180 -381 221 -84 23 -302 29 -370 10z"/>
<path d="M875 5340 c-3 -5 3 -10 14 -10 12 0 21 5 21 10 0 6 -6 10 -14 10 -8
0 -18 -4 -21 -10z"/>
<path d="M4535 5300 c-3 -5 1 -10 9 -10 8 0 18 5 21 10 3 6 -1 10 -9 10 -8 0
-18 -4 -21 -10z"/>
<path d="M955 5280 c3 -5 13 -10 21 -10 8 0 14 5 14 10 0 6 -9 10 -21 10 -11
0 -17 -4 -14 -10z"/>
<path d="M1678 5283 c6 -2 18 -2 25 0 6 3 1 5 -13 5 -14 0 -19 -2 -12 -5z"/>
<path d="M2880 5266 c0 -28 20 -67 84 -164 35 -53 71 -112 81 -130 33 -67 24
-22 -25 119 -35 99 -58 151 -76 167 -28 25 -64 29 -64 8z"/>
<path d="M1038 5233 c7 -3 16 -2 19 1 4 3 -2 6 -13 5 -11 0 -14 -3 -6 -6z"/>
<path d="M4450 5211 c0 -18 17 -20 36 -6 18 14 18 14 -8 15 -16 0 -28 -4 -28
-9z"/>
<path d="M4389 5104 c-11 -14 -10 -15 11 -12 13 1 25 9 28 16 5 17 -23 15 -39
-4z"/>
<path d="M2228 5043 c6 -2 18 -2 25 0 6 3 1 5 -13 5 -14 0 -19 -2 -12 -5z"/>
<path d="M5937 4961 c-9 -16 -17 -39 -17 -51 0 -23 160 -393 167 -386 3 2 -7
55 -21 118 -14 62 -30 149 -36 193 -12 84 -37 148 -61 153 -8 1 -22 -11 -32
-27z"/>
<path d="M785 4930 c-3 -5 1 -10 9 -10 9 0 16 5 16 10 0 6 -4 10 -9 10 -6 0
-13 -4 -16 -10z"/>
<path d="M710 4880 c0 -5 4 -10 9 -10 6 0 13 5 16 10 3 6 -1 10 -9 10 -9 0
-16 -4 -16 -10z"/>
<path d="M768 4840 c-57 -42 -119 -107 -142 -147 -3 -6 31 26 76 71 46 46 97
92 113 104 17 12 27 22 24 22 -3 0 -35 -22 -71 -50z"/>
<path d="M2747 4844 c-9 -10 2 -24 19 -24 8 0 14 7 14 15 0 15 -21 21 -33 9z"/>
<path d="M657 4833 c-12 -12 -7 -22 8 -17 8 4 15 10 15 15 0 11 -14 12 -23 2z"/>
<path d="M2805 4791 c-3 -5 -1 -12 5 -16 12 -7 30 2 30 16 0 12 -27 12 -35 0z"/>
<path d="M5233 4794 c-18 -8 -16 -34 1 -34 21 0 26 -25 10 -49 -21 -29 -41
-26 -80 13 -19 19 -34 30 -34 25 0 -16 70 -79 95 -85 44 -11 75 4 91 43 14 34
14 38 -4 62 -18 25 -53 36 -79 25z"/>
<path d="M5602 4788 c7 -19 38 -22 38 -4 0 10 -9 16 -21 16 -12 0 -19 -5 -17
-12z"/>
<path d="M590 4760 c0 -5 4 -10 9 -10 6 0 13 5 16 10 3 6 -1 10 -9 10 -9 0
-16 -4 -16 -10z"/>
<path d="M2875 4730 c3 -5 10 -10 16 -10 5 0 9 5 9 10 0 6 -7 10 -16 10 -8 0
-12 -4 -9 -10z"/>
<path d="M5680 4730 c0 -5 7 -10 15 -10 8 0 15 5 15 10 0 6 -7 10 -15 10 -8 0
-15 -4 -15 -10z"/>
<path d="M535 4689 c-4 -6 -5 -12 -2 -15 7 -7 37 7 37 17 0 13 -27 11 -35 -2z"/>
<path d="M2918 4673 c7 -3 16 -2 19 1 4 3 -2 6 -13 5 -11 0 -14 -3 -6 -6z"/>
<path d="M5735 4670 c4 -6 11 -8 16 -5 14 9 11 15 -7 15 -8 0 -12 -5 -9 -10z"/>
<path d="M5725 4445 c-5 -2 -26 -6 -46 -9 -46 -8 -116 -68 -140 -120 -35 -78
-18 -168 46 -244 21 -26 25 -36 15 -42 -7 -4 -9 -13 -6 -19 5 -8 16 -7 36 4
16 8 37 15 47 15 10 1 3 7 -17 16 -76 33 -120 96 -120 173 0 62 10 89 51 135
50 58 101 79 189 79 63 0 69 2 35 8 -42 8 -73 10 -90 4z"/>
<path d="M6450 4330 c0 -13 5 -20 13 -17 6 2 12 10 12 17 0 7 -6 15 -12 18 -8
2 -13 -5 -13 -18z"/>
<path d="M1361 4292 c-11 -31 -11 -46 -3 -54 13 -13 25 25 20 68 -3 28 -4 27
-17 -14z"/>
<path d="M5186 4295 c-23 -24 -20 -31 17 -41 41 -12 41 -32 -3 -62 l-35 -24
35 7 c86 18 117 57 83 104 -24 31 -73 40 -97 16z"/>
<path d="M6510 4275 c0 -8 4 -15 10 -15 5 0 7 7 4 15 -4 8 -8 15 -10 15 -2 0
-4 -7 -4 -15z"/>
<path d="M6560 4241 c0 -6 5 -13 10 -16 6 -3 10 1 10 9 0 9 -4 16 -10 16 -5 0
-10 -4 -10 -9z"/>
<path d="M6631 4204 c0 -11 3 -14 6 -6 3 7 2 16 -1 19 -3 4 -6 -2 -5 -13z"/>
<path d="M4983 4173 c9 -2 23 -2 30 0 6 3 -1 5 -18 5 -16 0 -22 -2 -12 -5z"/>
<path d="M5762 4138 c-7 -7 -12 -20 -12 -31 0 -14 5 -17 21 -12 15 5 22 2 26
-14 4 -17 8 -19 19 -10 20 17 17 57 -5 69 -25 13 -34 13 -49 -2z"/>
<path d="M2358 4081 c-45 -36 -44 -121 1 -121 33 0 54 35 48 81 -7 55 -18 64
-49 40z"/>
<path d="M2196 3874 c-14 -37 0 -84 26 -84 17 0 39 49 32 74 -7 30 -48 37 -58
10z"/>
<path d="M2275 3748 c-266 -235 -395 -339 -748 -605 -442 -333 -544 -419 -523
-440 2 -3 69 48 148 113 78 64 260 205 403 312 311 234 466 356 600 473 114
100 304 289 290 289 -6 -1 -82 -64 -170 -142z"/>
<path d="M6194 3638 c-129 -143 -245 -243 -409 -350 -536 -351 -1252 -536
-2233 -578 -170 -7 -148 -8 168 -5 384 3 481 10 787 61 712 117 1295 395 1644
785 100 112 173 209 156 209 -2 0 -53 -55 -113 -122z"/>
<path d="M2050 3726 c-13 -36 -2 -68 24 -64 25 4 35 51 15 74 -17 20 -28 17
-39 -10z"/>
<path d="M4642 3734 c-69 -35 -104 -115 -78 -177 22 -55 41 -56 90 -8 23 22
49 41 57 41 8 0 29 -15 47 -33 24 -25 32 -42 32 -69 0 -47 -33 -79 -130 -128
-182 -91 -422 -155 -725 -193 -16 -2 13 -5 65 -5 194 -3 582 79 735 155 69 35
127 84 165 140 29 43 31 54 28 109 -4 68 -30 113 -90 156 -43 30 -147 37 -196
12z"/>
<path d="M6423 3720 c-15 -6 -23 -18 -23 -34 0 -49 66 -58 120 -16 22 17 23
21 10 34 -20 19 -79 28 -107 16z"/>
<path d="M599 3679 c-17 -14 -20 -22 -11 -25 6 -3 12 -23 12 -45 0 -33 -4 -40
-25 -45 -14 -3 -37 -4 -50 -2 -56 11 -2 -48 76 -82 74 -33 160 93 118 172 -10
18 -64 48 -88 48 -5 0 -19 -9 -32 -21z"/>
<path d="M7263 3593 c20 -2 54 -2 75 0 20 2 3 4 -38 4 -41 0 -58 -2 -37 -4z"/>
<path d="M6244 3505 c-12 -29 4 -45 44 -45 41 0 80 29 67 49 -10 17 -105 14
-111 -4z"/>
<path d="M53 3387 c-47 -18 -51 -27 -12 -27 200 0 359 -122 429 -330 20 -57
22 -78 16 -175 -6 -110 -14 -164 -80 -545 -19 -113 -43 -259 -51 -325 -19
-140 -23 -463 -6 -491 8 -15 10 -8 11 36 1 140 22 411 40 517 11 65 42 224 70
353 101 482 104 604 21 769 -34 66 -102 139 -164 176 -83 48 -206 67 -274 42z"/>
<path d="M6086 3357 c-13 -9 -16 -20 -12 -34 9 -29 31 -35 77 -23 50 14 53 43
8 59 -41 14 -51 14 -73 -2z"/>
<path d="M2565 3236 c-44 -18 -213 -93 -375 -166 -162 -73 -365 -164 -450
-202 -148 -67 -195 -92 -154 -83 10 3 141 34 289 69 330 79 379 89 625 125
113 16 220 38 253 51 68 26 151 98 145 127 -4 24 -178 113 -221 113 -18 0 -68
-15 -112 -34z"/>
<path d="M5874 3198 c-12 -19 36 -50 65 -43 32 8 51 23 51 41 0 18 -105 20
-116 2z"/>
<path d="M950 3130 c-19 -10 -61 -45 -92 -77 -52 -53 -60 -67 -86 -153 -16
-52 -77 -236 -136 -409 -58 -173 -105 -315 -103 -317 2 -2 32 47 67 108 120
215 211 363 286 468 187 259 222 465 64 380z"/>
<path d="M3498 3143 c18 -2 45 -2 60 0 15 2 0 4 -33 4 -33 0 -45 -2 -27 -4z"/>
<path d="M5700 3080 c-18 -11 -3 -30 26 -32 28 -2 74 11 74 21 0 19 -75 27
-100 11z"/>
<path d="M5530 2980 c-13 -9 -12 -12 4 -25 11 -8 25 -15 31 -15 6 0 20 7 31
15 16 13 17 16 4 25 -8 5 -24 10 -35 10 -11 0 -27 -5 -35 -10z"/>
<path d="M5313 2913 c-7 -2 -13 -11 -13 -19 0 -16 43 -29 67 -19 16 6 16 8 -6
26 -24 20 -28 21 -48 12z"/>
<path d="M2571 2566 c2 -2 101 -25 219 -51 489 -105 774 -191 995 -299 220
-108 356 -208 546 -403 130 -133 224 -254 257 -331 22 -50 22 -55 8 -109 -19
-70 -11 -82 41 -64 35 13 38 12 59 -12 12 -14 30 -49 39 -77 15 -46 16 -53 1
-75 -9 -13 -16 -38 -16 -56 0 -28 2 -31 24 -25 34 8 54 -2 71 -35 20 -38 19
-65 -6 -117 -24 -48 -18 -62 28 -62 43 0 58 -43 59 -165 2 -121 16 -190 40
-199 52 -20 59 69 13 169 -39 87 -37 126 9 137 17 5 32 15 32 23 0 17 -30 35
-60 35 -25 0 -50 52 -50 105 0 28 5 37 24 45 13 5 27 14 31 20 10 16 -22 48
-55 55 -36 8 -66 41 -85 94 -23 65 -20 85 15 98 47 18 37 39 -27 60 -47 15
-62 26 -86 60 -15 24 -31 58 -34 77 -5 32 -3 36 30 49 19 8 37 20 41 25 10 16
-43 52 -76 52 -41 0 -96 31 -144 82 -54 56 -194 230 -194 240 0 13 22 9 70
-13 140 -63 327 -63 385 1 25 28 31 100 11 139 -28 54 -76 61 -123 18 -33 -30
-29 -47 11 -47 100 0 49 -105 -57 -117 -80 -9 -182 34 -557 233 -487 259 -786
355 -1314 424 -165 21 -182 23 -175 16z"/>
<path d="M3831 2516 c2 -2 103 -9 224 -16 542 -28 761 -49 1085 -105 662 -115
1158 -361 1414 -702 185 -246 257 -560 191 -830 -46 -184 -162 -326 -268 -326
-82 0 -106 91 -42 162 19 21 35 43 35 49 0 6 -14 22 -31 36 -67 56 -162 19
-214 -83 -13 -25 -16 -52 -13 -101 5 -89 37 -140 112 -177 l53 -26 84 41 c137
66 242 176 306 320 74 167 69 446 -13 674 -171 475 -589 780 -1309 953 -269
65 -648 111 -1000 120 -413 11 -618 15 -614 11z"/>
<path d="M5468 2483 c6 -2 18 -2 25 0 6 3 1 5 -13 5 -14 0 -19 -2 -12 -5z"/>
<path d="M2134 2473 c2 -3 46 -13 98 -23 329 -64 594 -249 797 -555 119 -181
189 -247 243 -229 28 8 38 45 38 134 0 107 -25 172 -92 240 -180 183 -568 384
-808 419 -78 11 -284 21 -276 14z m981 -481 c-7 -7 -45 28 -57 53 -7 12 3 7
26 -14 19 -19 34 -37 31 -39z"/>
<path d="M5570 2460 c20 -13 43 -13 35 0 -3 6 -16 10 -28 10 -18 0 -19 -2 -7
-10z"/>
<path d="M5701 2426 c2 -2 58 -25 124 -51 283 -111 522 -244 670 -372 94 -82
243 -234 306 -313 28 -36 54 -67 57 -70 3 -3 -10 24 -29 59 -41 76 -160 213
-266 307 -182 159 -452 306 -743 405 -113 39 -127 43 -119 35z"/>
<path d="M6152 2368 c8 -22 37 -34 55 -22 33 21 26 34 -17 34 -28 0 -40 -4
-38 -12z"/>
<path d="M2155 2304 c264 -69 468 -202 594 -387 114 -167 175 -408 152 -595
-35 -275 -199 -490 -452 -591 -101 -41 -200 -55 -334 -48 -163 8 -275 47 -382
133 -56 46 -83 92 -85 147 -4 88 59 115 117 51 l33 -35 36 31 c50 44 47 79
-13 143 -52 57 -117 72 -186 43 -119 -50 -70 -273 92 -416 62 -54 183 -112
306 -146 114 -31 142 -50 158 -105 18 -58 68 -99 122 -99 50 0 67 13 67 53 0
24 -6 31 -40 44 -22 9 -40 19 -40 23 0 19 89 84 172 126 244 122 375 261 445
469 26 74 27 92 28 250 0 134 -4 185 -19 240 -71 269 -298 525 -565 636 -68
28 -262 70 -316 68 -11 0 39 -16 110 -35z"/>
<path d="M1878 2313 c6 -2 18 -2 25 0 6 3 1 5 -13 5 -14 0 -19 -2 -12 -5z"/>
<path d="M6336 2302 c-3 -5 2 -18 10 -30 11 -16 25 -22 55 -22 47 0 50 14 7
40 -35 21 -63 26 -72 12z"/>
<path d="M6534 2178 c-4 -6 3 -19 16 -30 27 -22 31 -22 56 -3 19 15 19 15 0
30 -24 18 -62 20 -72 3z"/>
<path d="M6687 2053 c-12 -11 -8 -31 9 -47 15 -16 65 -22 77 -10 12 12 -13 42
-44 53 -38 13 -34 13 -42 4z"/>
<path d="M1318 2029 c-35 -20 -15 -69 29 -69 32 0 73 21 73 37 0 8 -16 21 -35
29 -40 16 -44 17 -67 3z"/>
<path d="M1150 1895 c-32 -39 23 -79 76 -54 38 18 42 42 9 57 -35 16 -70 15
-85 -3z"/>
<path d="M6847 1893 c-18 -17 -6 -51 23 -63 36 -15 60 -7 60 19 0 28 -65 62
-83 44z"/>
<path d="M1001 1752 c-11 -21 3 -52 25 -52 25 0 74 29 74 44 0 28 -84 35 -99
8z"/>
<path d="M6967 1703 c-26 -25 19 -73 68 -73 27 0 35 4 35 18 0 39 -78 81 -103
55z"/>
<path d="M922 1609 c-36 -14 -25 -43 19 -47 43 -4 69 19 49 43 -14 17 -34 18
-68 4z"/>
<path d="M830 1450 c-12 -7 -12 -13 -4 -27 15 -25 40 -28 70 -8 20 13 23 19
13 31 -13 16 -57 18 -79 4z"/>
<path d="M795 1266 c-16 -12 -17 -17 -8 -27 16 -16 67 5 60 24 -6 18 -30 20
-52 3z"/>
<path d="M772 1048 c-17 -17 -15 -38 3 -38 12 0 35 28 35 44 0 11 -26 6 -38
-6z"/>
</g>
</svg>
